{
  "asset": {
    "version": "2.0",
    "generator": "CorePulse Test Generator"
  },
  "scene": 0,
  "scenes": [
    {
      "name": "Test Scene",
      "nodes": [
        0
      ]
    }
  ],
  "nodes": [
    {
      "name": "Laser Cannon",
      "mesh": 0,
      "translation": [
        0,
        0,
        0
      ],
      "rotation": [
        0,
        0,
        0,
        1
      ],
      "scale": [
        3.0,
        0.3,
        0.3
      ]
    }
  ],
  "meshes": [
    {
      "name": "Cube Mesh",
      "primitives": [
        {
          "attributes": {
            "POSITION": 0,
            "NORMAL": 1,
            "TEXCOORD_0": 2
          },
          "indices": 3,
          "material": 0
        }
      ]
    }
  ],
  "materials": [
    {
      "name": "Weapon Material",
      "pbrMetallicRoughness": {
        "baseColorFactor": [
          0.6,
          0.6,
          0.6,
          1.0
        ],
        "metallicFactor": 0.8,
        "roughnessFactor": 0.8
      }
    }
  ],
  "accessors": [
    {
      "name": "Position Accessor",
      "bufferView": 0,
      "byteOffset": 0,
      "componentType": 5126,
      "count": 24,
      "type": "VEC3",
      "min": [
        -1,
        -1,
        -1
      ],
      "max": [
        1,
        1,
        1
      ]
    },
    {
      "name": "Normal Accessor",
      "bufferView": 0,
      "byteOffset": 12,
      "componentType": 5126,
      "count": 24,
      "type": "VEC3"
    },
    {
      "name": "TexCoord Accessor",
      "bufferView": 0,
      "byteOffset": 24,
      "componentType": 5126,
      "count": 24,
      "type": "VEC2"
    },
    {
      "name": "Index Accessor",
      "bufferView": 1,
      "byteOffset": 0,
      "componentType": 5123,
      "count": 36,
      "type": "SCALAR"
    }
  ],
  "bufferViews": [
    {
      "name": "Vertex Buffer View",
      "buffer": 0,
      "byteOffset": 0,
      "byteLength": 768,
      "byteStride": 32,
      "target": 34962
    },
    {
      "name": "Index Buffer View",
      "buffer": 0,
      "byteOffset": 768,
      "byteLength": 72,
      "target": 34963
    }
  ],
  "buffers": [
    {
      "name": "Cube Buffer",
      "uri": "laser_cannon.bin",
      "byteLength": 840
    }
  ]
}