{
  "asset": {
    "version": "2.0",
    "generator": "CorePulse Mech Generator"
  },
  "scene": 0,
  "scenes": [
    {
      "name": "Light Mech Scene",
      "nodes": [
        0
      ]
    }
  ],
  "nodes": [
    {
      "name": "Light Mech",
      "mesh": 0,
      "translation": [
        0,
        0,
        0
      ],
      "rotation": [
        0,
        0,
        0,
        1
      ],
      "scale": [
        1,
        1,
        1
      ]
    }
  ],
  "meshes": [
    {
      "name": "Light Mech Mesh",
      "primitives": [
        {
          "attributes": {
            "POSITION": 0,
            "NORMAL": 1,
            "TEXCOORD_0": 2
          },
          "indices": 3,
          "material": 0
        }
      ]
    }
  ],
  "materials": [
    {
      "name": "Light Mech Material",
      "pbrMetallicRoughness": {
        "baseColorFactor": [
          0.2,
          0.8,
          0.2,
          1.0
        ],
        "metallicFactor": 0.3,
        "roughnessFactor": 0.7
      }
    }
  ],
  "accessors": [
    {
      "name": "Position Accessor",
      "bufferView": 0,
      "byteOffset": 0,
      "componentType": 5126,
      "count": 96,
      "type": "VEC3",
      "min": [
        -1.2000000000000002,
        -2.4000000000000004,
        -0.8
      ],
      "max": [
        1.2000000000000002,
        4.24,
        0.8800000000000001
      ]
    },
    {
      "name": "Normal Accessor",
      "bufferView": 0,
      "byteOffset": 12,
      "componentType": 5126,
      "count": 96,
      "type": "VEC3"
    },
    {
      "name": "TexCoord Accessor",
      "bufferView": 0,
      "byteOffset": 24,
      "componentType": 5126,
      "count": 96,
      "type": "VEC2"
    },
    {
      "name": "Index Accessor",
      "bufferView": 1,
      "byteOffset": 0,
      "componentType": 5123,
      "count": 144,
      "type": "SCALAR"
    }
  ],
  "bufferViews": [
    {
      "name": "Vertex Buffer View",
      "buffer": 0,
      "byteOffset": 0,
      "byteLength": 3072,
      "byteStride": 32,
      "target": 34962
    },
    {
      "name": "Index Buffer View",
      "buffer": 0,
      "byteOffset": 3072,
      "byteLength": 288,
      "target": 34963
    }
  ],
  "buffers": [
    {
      "name": "Light Mech Buffer",
      "uri": "light_mech.bin",
      "byteLength": 3360
    }
  ],
  "extensions": {
    "CP_walker_hardpoints": {
      "hardpoints": [
        {
          "id": "light_mech_arm_energy_1",
          "name": "Left Arm Energy Hardpoint",
          "type": "ENERGY",
          "size": "MEDIUM",
          "position": [
            -1.2000000000000002,
            2.0,
            0.4
          ],
          "orientation": [
            0,
            0,
            0
          ],
          "max_tonnage": 3.0,
          "critical_slots": 2,
          "attachment_node": "left_arm_mount"
        },
        {
          "id": "light_mech_arm_ballistic_1",
          "name": "Right Arm Ballistic Hardpoint",
          "type": "BALLISTIC",
          "size": "MEDIUM",
          "position": [
            1.2000000000000002,
            2.0,
            0.4
          ],
          "orientation": [
            0,
            0,
            0
          ],
          "max_tonnage": 5.0,
          "critical_slots": 3,
          "attachment_node": "right_arm_mount"
        }
      ]
    },
    "CP_damage_zones": {
      "zones": [
        {
          "id": "light_mech_head",
          "name": "Head",
          "type": "HEAD",
          "max_armor": 9.0,
          "max_internal": 3.0,
          "bounds_min": [
            -0.6400000000000001,
            3.2,
            -0.6400000000000001
          ],
          "bounds_max": [
            0.6400000000000001,
            4.16,
            0.6400000000000001
          ],
          "total_slots": 6,
          "destruction_effects": [
            "cockpit_breach",
            "sensor_damage"
          ]
        },
        {
          "id": "light_mech_center_torso",
          "name": "Center Torso",
          "type": "CENTER_TORSO",
          "max_armor": 16.0,
          "max_internal": 12.0,
          "bounds_min": [
            -1.2000000000000002,
            0.8,
            -0.8
          ],
          "bounds_max": [
            1.2000000000000002,
            2.4000000000000004,
            0.8
          ],
          "total_slots": 12,
          "destruction_effects": [
            "engine_shutdown",
            "mech_destruction"
          ]
        },
        {
          "id": "light_mech_left_arm",
          "name": "Left Arm",
          "type": "LEFT_ARM",
          "max_armor": 9.600000000000001,
          "max_internal": 6.4,
          "bounds_min": [
            -1.7600000000000002,
            1.2000000000000002,
            -0.48
          ],
          "bounds_max": [
            -0.6400000000000001,
            2.8000000000000003,
            0.48
          ],
          "total_slots": 8,
          "destruction_effects": [
            "weapon_loss",
            "actuator_damage"
          ]
        },
        {
          "id": "light_mech_right_arm",
          "name": "Right Arm",
          "type": "RIGHT_ARM",
          "max_armor": 9.600000000000001,
          "max_internal": 6.4,
          "bounds_min": [
            0.6400000000000001,
            1.2000000000000002,
            -0.48
          ],
          "bounds_max": [
            1.7600000000000002,
            2.8000000000000003,
            0.48
          ],
          "total_slots": 8,
          "destruction_effects": [
            "weapon_loss",
            "actuator_damage"
          ]
        }
      ]
    }
  },
  "extensionsUsed": [
    "CP_walker_hardpoints",
    "CP_damage_zones"
  ]
}